<svg width="197" height="58" viewBox="0 0 197 58" fill="none" xmlns="http://www.w3.org/2000/svg">
<path d="M0.0750001 57.3L5.775 4.05C6.925 4 8.05 3.925 9.15 3.825C10.3 3.675 11.4 3.5 12.45 3.3C13.45 3.1 14.475 2.95 15.525 2.85C16.575 2.7 17.6 2.6 18.6 2.55L18.375 4.05C18.325 4.55 18.225 5.125 18.075 5.775C17.975 6.375 17.875 7.075 17.775 7.875C17.525 9.625 17.225 11.625 16.875 13.875C16.525 16.125 16.125 18.625 15.675 21.375C15.375 23.075 15.025 25.125 14.625 27.525C14.275 29.925 13.85 32.65 13.35 35.7H14.475C15.125 33.4 15.725 31.3 16.275 29.4C16.825 27.5 17.3 25.825 17.7 24.375C18.1 22.925 18.475 21.625 18.825 20.475C19.225 19.275 19.55 18.2 19.8 17.25C20.85 13.55 21.7 10.525 22.35 8.175C23 5.825 23.425 4.3 23.625 3.6H24.3C25.6 3.6 26.95 3.5 28.35 3.3C29.8 3.1 31.1 2.875 32.25 2.625C32.2 2.825 32.1 3.65 31.95 5.1C31.8 6.55 31.625 8.325 31.425 10.425C31.225 12.525 31.025 14.7 30.825 16.95C30.475 21.2 30.15 24.9 29.85 28.05C29.6 31.2 29.375 33.75 29.175 35.7H30.525L37.65 3.45L42.675 2.775C43.375 2.675 44.1 2.575 44.85 2.475C45.6 2.375 46.375 2.275 47.175 2.175C48.625 1.975 50 1.75 51.3 1.5C49.8 5.7 48.3 10.65 46.8 16.35C45.3 22.05 43.8 27.825 42.3 33.675C41.5 36.875 40.7 40.125 39.9 43.425C39.15 46.675 38.4 50 37.65 53.4L20.7 56.25L24 27.3H23.1L15.675 54.525L0.0750001 57.3ZM42.6439 57.075L52.4689 3.75L76.1689 1.725C75.8189 2.825 75.5189 3.95 75.2689 5.1C75.0189 6.05 74.7689 7.05 74.5189 8.1C74.3189 9.1 74.1439 10 73.9939 10.8C73.3439 10.85 72.4189 10.9 71.2189 10.95C70.0189 10.95 68.7939 10.975 67.5439 11.025C66.2939 11.025 65.2189 11.025 64.3189 11.025C63.4189 11.025 62.9439 11.025 62.8939 11.025L60.2689 24.45L64.6189 24.225C65.1689 24.175 65.7189 24.15 66.2689 24.15C66.8689 24.15 67.4439 24.15 67.9939 24.15C68.5439 24.15 69.0439 24.15 69.4939 24.15C69.9439 24.15 70.2939 24.125 70.5439 24.075C70.4439 24.775 70.3439 25.475 70.2439 26.175C70.1939 26.825 70.1189 27.5 70.0189 28.2L69.3439 32.325C69.0939 32.375 68.7689 32.4 68.3689 32.4C67.9689 32.4 67.4939 32.4 66.9439 32.4C66.3939 32.45 65.8189 32.475 65.2189 32.475C64.6189 32.475 64.0439 32.5 63.4939 32.55C62.8439 32.6 62.1689 32.625 61.4689 32.625C60.7689 32.625 60.0189 32.65 59.2189 32.7L56.6689 46.5L67.6189 44.775L66.8689 53.325L42.6439 57.075ZM67.9805 57.375C69.4805 50.175 70.9055 43.2 72.2555 36.45C73.3555 30.1 74.4305 24 75.4805 18.15C76.5305 12.3 77.2805 6.925 77.7305 2.025C78.0805 2.075 78.3805 2.1 78.6305 2.1C78.9305 2.1 79.1805 2.1 79.3805 2.1H80.9555C82.2555 2.1 83.7055 2.075 85.3055 2.025C86.9055 1.925 88.3805 1.85 89.7305 1.8C90.0805 3.55 90.4055 5.275 90.7055 6.975C91.0555 8.675 91.3555 10.325 91.6055 11.925C91.8555 13.325 92.1305 14.775 92.4305 16.275C92.7305 17.725 93.0305 19.2 93.3305 20.7C93.5805 22.2 93.8305 23.6 94.0805 24.9C94.3805 26.15 94.6305 27.3 94.8305 28.35C95.4305 25.4 95.9805 22.5 96.4805 19.65C97.0305 16.8 97.5555 14.225 98.0555 11.925L100.23 1.875L109.38 0.749996C108.53 4.55 107.73 8.275 106.98 11.925C106.23 15.575 105.53 19.1 104.88 22.5C103.63 28.6 102.53 34.35 101.58 39.75C100.63 45.15 99.9055 49.85 99.4055 53.85C99.9555 53.85 99.8555 53.925 99.1055 54.075C98.4055 54.175 97.3555 54.35 95.9555 54.6C94.5555 54.8 93.0555 55.075 91.4555 55.425C89.8555 55.775 88.4305 56.2 87.1805 56.7C87.0305 54.7 86.8805 52.75 86.7305 50.85C86.5805 48.95 86.4055 47.1 86.2055 45.3C85.9055 42.1 85.5555 38.925 85.1555 35.775C84.7555 32.625 84.3555 30.125 83.9555 28.275C83.6055 30.475 83.1805 33 82.6805 35.85C82.1805 38.65 81.6305 41.475 81.0305 44.325L78.9305 54.825L67.9805 57.375ZM115.167 57.15C112.017 57.15 109.442 55.675 107.442 52.725C105.442 49.775 104.442 45.725 104.442 40.575C104.442 35.875 105.092 31.25 106.392 26.7C107.692 22.1 109.517 17.975 111.867 14.325C114.217 10.675 116.992 7.75 120.192 5.55C123.442 3.3 127.017 2.175 130.917 2.175C133.367 2.175 135.467 3.125 137.217 5.025C138.967 6.925 139.842 9.475 139.842 12.675V13.575C139.842 13.775 139.842 13.95 139.842 14.1C139.842 14.25 139.817 14.425 139.767 14.625L129.942 17.25C129.342 16 128.642 15.375 127.842 15.375C126.642 15.375 125.367 16.35 124.017 18.3C122.717 20.25 121.467 22.575 120.267 25.275C119.467 27.075 118.742 28.925 118.092 30.825C117.492 32.725 117.017 34.5 116.667 36.15C116.317 37.8 116.142 39.15 116.142 40.2C116.142 41.75 116.367 42.875 116.817 43.575C117.167 44.225 117.717 44.55 118.467 44.55C119.217 44.55 120.042 44.2 120.942 43.5C121.842 42.75 122.667 41.825 123.417 40.725C124.217 39.625 124.742 38.525 124.992 37.425L133.542 40.875C131.092 46.475 128.167 50.6 124.767 53.25C121.417 55.85 118.217 57.15 115.167 57.15ZM133.171 57.075L142.996 3.75L166.696 1.725C166.346 2.825 166.046 3.95 165.796 5.1C165.546 6.05 165.296 7.05 165.046 8.1C164.846 9.1 164.671 10 164.521 10.8C163.871 10.85 162.946 10.9 161.746 10.95C160.546 10.95 159.321 10.975 158.071 11.025C156.821 11.025 155.746 11.025 154.846 11.025C153.946 11.025 153.471 11.025 153.421 11.025L150.796 24.45L155.146 24.225C155.696 24.175 156.246 24.15 156.796 24.15C157.396 24.15 157.971 24.15 158.521 24.15C159.071 24.15 159.571 24.15 160.021 24.15C160.471 24.15 160.821 24.125 161.071 24.075C160.971 24.775 160.871 25.475 160.771 26.175C160.721 26.825 160.646 27.5 160.546 28.2L159.871 32.325C159.621 32.375 159.296 32.4 158.896 32.4C158.496 32.4 158.021 32.4 157.471 32.4C156.921 32.45 156.346 32.475 155.746 32.475C155.146 32.475 154.571 32.5 154.021 32.55C153.371 32.6 152.696 32.625 151.996 32.625C151.296 32.625 150.546 32.65 149.746 32.7L147.196 46.5L158.146 44.775L157.396 53.325L133.171 57.075ZM170.958 57.15C168.958 57.15 166.958 56.625 164.958 55.575C162.958 54.475 161.033 52.75 159.183 50.4L164.733 39.525C165.283 40.475 166.083 41.375 167.133 42.225C168.233 43.075 169.383 43.75 170.583 44.25C171.783 44.75 172.808 45 173.658 45C174.958 45 176.183 44.6 177.333 43.8C178.533 43 179.133 41.925 179.133 40.575C179.133 38.825 178.333 37.225 176.733 35.775C175.133 34.325 173.333 32.9 171.333 31.5C169.383 30.1 167.583 28.525 165.933 26.775C164.333 24.975 163.533 22.925 163.533 20.625C163.533 18.025 164.283 15.625 165.783 13.425C167.283 11.175 169.233 9.225 171.633 7.575C174.033 5.875 176.583 4.575 179.283 3.675C182.033 2.725 184.633 2.25 187.083 2.25C188.833 2.25 190.458 2.55 191.958 3.15C193.458 3.7 194.658 4.625 195.558 5.925C196.458 7.225 196.908 8.975 196.908 11.175C196.908 11.525 196.883 11.875 196.833 12.225C196.833 12.575 196.808 12.925 196.758 13.275C196.708 13.625 196.633 14 196.533 14.4C196.483 14.75 196.433 15.125 196.383 15.525L185.508 18.675C185.608 18.275 185.683 17.875 185.733 17.475C185.833 17.075 185.883 16.675 185.883 16.275C185.883 14.775 185.608 13.7 185.058 13.05C184.558 12.35 183.883 12 183.033 12C182.583 12 181.933 12.25 181.083 12.75C180.233 13.2 179.458 13.85 178.758 14.7C178.108 15.5 177.783 16.4 177.783 17.4C177.783 19.05 178.458 20.425 179.808 21.525C181.208 22.575 182.808 23.65 184.608 24.75C185.458 25.25 186.408 26.05 187.458 27.15C188.508 28.2 189.408 29.65 190.158 31.5C190.958 33.3 191.358 35.625 191.358 38.475C191.358 42.175 190.433 45.425 188.583 48.225C186.783 51.025 184.333 53.225 181.233 54.825C178.133 56.375 174.708 57.15 170.958 57.15Z" fill="#F24B2E"/>
</svg>
