<svg xmlns="http://www.w3.org/2000/svg" xmlns:xlink="http://www.w3.org/1999/xlink" width="1280" zoomAndPan="magnify" viewBox="0 0 960 479.999983" height="640" preserveAspectRatio="xMidYMid meet" version="1.0"><defs><g/></defs><g fill="#ce301d" fill-opacity="1"><g transform="translate(242.177794, 279.448776)"><g><path d="M 156.15625 -95.71875 C 157.976562 -96.15625 159.800781 -95.914062 161.625 -95 C 163.445312 -94.09375 165.09375 -92.859375 166.5625 -91.296875 C 168.039062 -89.734375 169.128906 -88.125 169.828125 -86.46875 C 170.523438 -84.820312 170.566406 -83.390625 169.953125 -82.171875 C 167.609375 -80.441406 165.328125 -77.859375 163.109375 -74.421875 C 160.898438 -70.992188 158.816406 -67 156.859375 -62.4375 C 154.910156 -57.882812 153.085938 -53.066406 151.390625 -47.984375 C 149.703125 -42.910156 148.117188 -37.851562 146.640625 -32.8125 C 144.648438 -25.695312 142.046875 -19.597656 138.828125 -14.515625 C 135.617188 -9.441406 131.515625 -5.554688 126.515625 -2.859375 C 121.523438 -0.171875 115.34375 1.171875 107.96875 1.171875 C 103.363281 1.171875 99.628906 0.328125 96.765625 -1.359375 C 93.898438 -3.054688 91.789062 -5.207031 90.4375 -7.8125 C 89.09375 -10.414062 88.335938 -13.109375 88.171875 -15.890625 C 85.210938 -10.066406 81.476562 -5.765625 76.96875 -2.984375 C 72.457031 -0.210938 67.25 1.171875 61.34375 1.171875 C 51.875 1.171875 45.726562 -1.910156 42.90625 -8.078125 C 40.082031 -14.242188 40.238281 -23.226562 43.375 -35.03125 C 44.84375 -40.332031 46.679688 -46.0625 48.890625 -52.21875 C 51.109375 -58.382812 53.347656 -65.113281 55.609375 -72.40625 C 53.960938 -70.238281 51.878906 -68.695312 49.359375 -67.78125 C 46.835938 -66.875 44.316406 -66.179688 41.796875 -65.703125 C 39.285156 -65.222656 37.070312 -64.523438 35.15625 -63.609375 C 33.25 -62.703125 31.992188 -61.117188 31.390625 -58.859375 C 30.429688 -55.046875 31.644531 -52.3125 35.03125 -50.65625 C 35.46875 -50.226562 35.578125 -49.335938 35.359375 -47.984375 C 35.140625 -46.640625 34.703125 -45.335938 34.046875 -44.078125 C 33.398438 -42.828125 32.597656 -42.070312 31.640625 -41.8125 C 27.210938 -41.289062 23.347656 -41.722656 20.046875 -43.109375 C 16.753906 -44.492188 14.300781 -46.597656 12.6875 -49.421875 C 11.082031 -52.242188 10.585938 -55.566406 11.203125 -59.390625 C 11.722656 -62.421875 12.957031 -64.867188 14.90625 -66.734375 C 16.863281 -68.609375 19.316406 -70.085938 22.265625 -71.171875 C 25.222656 -72.253906 28.4375 -73.207031 31.90625 -74.03125 C 35.375 -74.863281 38.867188 -75.753906 42.390625 -76.703125 C 45.910156 -77.660156 49.273438 -78.921875 52.484375 -80.484375 C 55.691406 -82.046875 58.46875 -84.128906 60.8125 -86.734375 C 61.769531 -87.691406 63.378906 -88.382812 65.640625 -88.8125 C 67.898438 -89.25 70.285156 -89.421875 72.796875 -89.328125 C 75.316406 -89.242188 77.46875 -88.941406 79.25 -88.421875 C 81.03125 -87.898438 81.960938 -87.164062 82.046875 -86.21875 C 80.828125 -82.476562 79.695312 -79.109375 78.65625 -76.109375 C 77.613281 -73.117188 76.59375 -70.144531 75.59375 -67.1875 C 74.601562 -64.238281 73.539062 -61.050781 72.40625 -57.625 C 71.28125 -54.195312 70 -50.179688 68.5625 -45.578125 C 67.132812 -40.972656 65.421875 -35.503906 63.421875 -29.171875 C 62.460938 -26.046875 61.832031 -23.070312 61.53125 -20.25 C 61.226562 -17.425781 61.507812 -15.125 62.375 -13.34375 C 63.25 -11.5625 64.859375 -10.671875 67.203125 -10.671875 C 69.722656 -10.671875 72.609375 -12.664062 75.859375 -16.65625 C 79.117188 -20.65625 81.832031 -26.21875 84 -33.34375 C 85.21875 -37.332031 86.648438 -41.734375 88.296875 -46.546875 C 89.941406 -51.367188 91.613281 -56.253906 93.3125 -61.203125 C 95.007812 -66.160156 96.640625 -70.875 98.203125 -75.34375 C 99.765625 -79.8125 101.066406 -83.648438 102.109375 -86.859375 C 102.710938 -87.816406 104.054688 -88.488281 106.140625 -88.875 C 108.222656 -89.269531 110.476562 -89.359375 112.90625 -89.140625 C 115.34375 -88.921875 117.515625 -88.421875 119.421875 -87.640625 C 121.335938 -86.859375 122.46875 -85.773438 122.8125 -84.390625 C 121.945312 -81.867188 120.734375 -78.351562 119.171875 -73.84375 C 117.609375 -69.332031 115.890625 -64.273438 114.015625 -58.671875 C 112.148438 -53.066406 110.304688 -47.289062 108.484375 -41.34375 C 106.660156 -35.394531 104.96875 -29.6875 103.40625 -24.21875 C 102.800781 -21.96875 102.453125 -19.773438 102.359375 -17.640625 C 102.273438 -15.515625 102.734375 -13.800781 103.734375 -12.5 C 104.734375 -11.195312 106.40625 -10.546875 108.75 -10.546875 C 111.175781 -10.546875 113.410156 -11.519531 115.453125 -13.46875 C 117.492188 -15.425781 119.335938 -17.988281 120.984375 -21.15625 C 122.640625 -24.332031 123.988281 -27.65625 125.03125 -31.125 C 128.757812 -43.28125 132.097656 -53.875 135.046875 -62.90625 C 138.003906 -71.9375 141.109375 -79.226562 144.359375 -84.78125 C 147.617188 -90.34375 151.550781 -93.988281 156.15625 -95.71875 Z M 156.15625 -95.71875 "/></g></g></g><g fill="#ce301d" fill-opacity="1"><g transform="translate(404.456204, 279.448776)"><g><path d="M 36.859375 -55.34375 C 42.503906 -55.257812 46.890625 -54.023438 50.015625 -51.640625 C 53.140625 -49.253906 55.023438 -46.300781 55.671875 -42.78125 C 56.328125 -39.257812 55.742188 -35.765625 53.921875 -32.296875 C 51.742188 -27.691406 47.851562 -24.328125 42.25 -22.203125 C 36.65625 -20.078125 30.171875 -19.578125 22.796875 -20.703125 C 23.140625 -17.234375 24.613281 -14.71875 27.21875 -13.15625 C 29.820312 -11.59375 33.46875 -10.765625 38.15625 -10.671875 C 40.675781 -10.671875 43.5 -11.082031 46.625 -11.90625 C 49.75 -12.738281 52.851562 -14.328125 55.9375 -16.671875 C 59.019531 -19.015625 61.6875 -22.3125 63.9375 -26.5625 C 64.289062 -27.175781 64.96875 -27.285156 65.96875 -26.890625 C 66.96875 -26.503906 67.898438 -25.960938 68.765625 -25.265625 C 69.628906 -24.566406 69.929688 -24.003906 69.671875 -23.578125 C 64.640625 -14.367188 58.953125 -7.894531 52.609375 -4.15625 C 46.273438 -0.425781 39.113281 1.390625 31.125 1.296875 C 23.65625 1.210938 17.6875 -0.0625 13.21875 -2.53125 C 8.75 -5.007812 5.601562 -8.265625 3.78125 -12.296875 C 1.957031 -16.335938 1.257812 -20.660156 1.6875 -25.265625 C 2.300781 -31.335938 4.191406 -36.628906 7.359375 -41.140625 C 10.523438 -45.660156 14.671875 -49.179688 19.796875 -51.703125 C 24.921875 -54.222656 30.609375 -55.4375 36.859375 -55.34375 Z M 35.03125 -42.984375 C 32.6875 -43.328125 30.40625 -42.148438 28.1875 -39.453125 C 25.976562 -36.765625 24.394531 -33.296875 23.4375 -29.046875 C 27.257812 -28.953125 30.273438 -29.90625 32.484375 -31.90625 C 34.703125 -33.90625 36.113281 -35.945312 36.71875 -38.03125 C 37.15625 -39.332031 37.222656 -40.457031 36.921875 -41.40625 C 36.617188 -42.363281 35.988281 -42.890625 35.03125 -42.984375 Z M 35.03125 -42.984375 "/></g></g></g><g fill="#ce301d" fill-opacity="1"><g transform="translate(466.580446, 279.448776)"><g><path d="M 48.3125 -55.734375 C 53.4375 -55.648438 56.78125 -54.023438 58.34375 -50.859375 C 59.90625 -47.691406 60.078125 -43.546875 58.859375 -38.421875 C 58.253906 -35.722656 57.363281 -32.613281 56.1875 -29.09375 C 55.019531 -25.582031 54.085938 -22.3125 53.390625 -19.28125 C 52.867188 -16.84375 52.78125 -14.84375 53.125 -13.28125 C 53.476562 -11.71875 54.21875 -10.9375 55.34375 -10.9375 C 57 -10.9375 58.738281 -11.648438 60.5625 -13.078125 C 62.382812 -14.515625 64.207031 -16.425781 66.03125 -18.8125 C 67.851562 -21.207031 69.414062 -23.789062 70.71875 -26.5625 C 71.0625 -27.175781 71.734375 -27.285156 72.734375 -26.890625 C 73.734375 -26.503906 74.644531 -25.941406 75.46875 -25.203125 C 76.289062 -24.460938 76.570312 -23.875 76.3125 -23.4375 C 75.007812 -21.007812 73.40625 -18.382812 71.5 -15.5625 C 69.59375 -12.738281 67.378906 -10.085938 64.859375 -7.609375 C 62.335938 -5.140625 59.515625 -3.101562 56.390625 -1.5 C 53.265625 0.101562 49.878906 0.953125 46.234375 1.046875 C 39.546875 1.210938 35.242188 -0.347656 33.328125 -3.640625 C 31.421875 -6.941406 31.117188 -11.15625 32.421875 -16.28125 C 32.679688 -17.320312 33.050781 -18.796875 33.53125 -20.703125 C 34.007812 -22.617188 34.507812 -24.640625 35.03125 -26.765625 C 35.550781 -28.890625 36.023438 -30.796875 36.453125 -32.484375 C 36.890625 -34.179688 37.15625 -35.332031 37.25 -35.9375 C 37.675781 -37.675781 37.757812 -39.046875 37.5 -40.046875 C 37.238281 -41.046875 36.195312 -41.414062 34.375 -41.15625 C 32.988281 -40.976562 31.535156 -40.429688 30.015625 -39.515625 C 28.492188 -38.609375 26.867188 -37.460938 25.140625 -36.078125 C 23.222656 -29.992188 21.613281 -24.148438 20.3125 -18.546875 C 19.007812 -12.953125 17.625 -7.160156 16.15625 -1.171875 C 15.632812 -0.390625 14.328125 0.210938 12.234375 0.640625 C 10.148438 1.078125 7.867188 1.296875 5.390625 1.296875 C 2.921875 1.296875 0.710938 1.035156 -1.234375 0.515625 C -3.191406 -0.00390625 -4.382812 -0.828125 -4.8125 -1.953125 C -2.820312 -10.546875 -0.523438 -19.359375 2.078125 -28.390625 C 4.679688 -37.421875 7.332031 -46.234375 10.03125 -54.828125 C 10.894531 -55.429688 12.238281 -55.863281 14.0625 -56.125 C 15.882812 -56.382812 17.835938 -56.445312 19.921875 -56.3125 C 22.003906 -56.1875 23.9375 -55.820312 25.71875 -55.21875 C 27.5 -54.613281 28.78125 -53.703125 29.5625 -52.484375 C 29.21875 -51.441406 28.890625 -50.351562 28.578125 -49.21875 C 28.273438 -48.09375 27.910156 -47.007812 27.484375 -45.96875 C 29.046875 -47.1875 30.953125 -48.578125 33.203125 -50.140625 C 35.460938 -51.703125 37.894531 -53.046875 40.5 -54.171875 C 43.101562 -55.304688 45.707031 -55.828125 48.3125 -55.734375 Z M 48.3125 -55.734375 "/></g></g></g><g fill="#ce301d" fill-opacity="1"><g transform="translate(535.346903, 279.448776)"><g><path d="M 36.859375 -55.484375 C 41.546875 -55.390625 45.191406 -54.648438 47.796875 -53.265625 C 50.398438 -51.878906 52.175781 -50.097656 53.125 -47.921875 C 54.082031 -45.753906 54.410156 -43.5 54.109375 -41.15625 C 53.804688 -38.8125 53.09375 -36.640625 51.96875 -34.640625 C 51.09375 -33.515625 49.722656 -32.625 47.859375 -31.96875 C 45.992188 -31.320312 44.019531 -30.953125 41.9375 -30.859375 C 39.851562 -30.773438 37.984375 -30.972656 36.328125 -31.453125 C 34.679688 -31.929688 33.6875 -32.734375 33.34375 -33.859375 C 33.6875 -34.460938 34.179688 -35.503906 34.828125 -36.984375 C 35.484375 -38.460938 35.921875 -39.851562 36.140625 -41.15625 C 36.359375 -42.457031 35.898438 -43.148438 34.765625 -43.234375 C 33.296875 -43.410156 31.710938 -42.757812 30.015625 -41.28125 C 28.328125 -39.8125 26.832031 -37.6875 25.53125 -34.90625 C 24.226562 -32.125 23.398438 -28.820312 23.046875 -25 C 22.703125 -20.144531 23.875 -16.539062 26.5625 -14.1875 C 29.257812 -11.84375 32.601562 -10.757812 36.59375 -10.9375 C 40.59375 -11.195312 44.566406 -12.457031 48.515625 -14.71875 C 52.460938 -16.976562 55.828125 -20.925781 58.609375 -26.5625 C 58.867188 -27.175781 59.492188 -27.285156 60.484375 -26.890625 C 61.484375 -26.503906 62.414062 -25.941406 63.28125 -25.203125 C 64.15625 -24.460938 64.460938 -23.921875 64.203125 -23.578125 C 60.734375 -16.890625 56.867188 -11.742188 52.609375 -8.140625 C 48.359375 -4.535156 43.890625 -2.082031 39.203125 -0.78125 C 34.515625 0.519531 29.78125 1.082031 25 0.90625 C 20.40625 0.738281 16.328125 -0.445312 12.765625 -2.65625 C 9.203125 -4.875 6.398438 -7.828125 4.359375 -11.515625 C 2.316406 -15.210938 1.34375 -19.316406 1.4375 -23.828125 C 1.601562 -29.554688 3.179688 -34.832031 6.171875 -39.65625 C 9.171875 -44.476562 13.296875 -48.34375 18.546875 -51.25 C 23.804688 -54.15625 29.910156 -55.566406 36.859375 -55.484375 Z M 36.859375 -55.484375 "/></g></g></g><g fill="#ce301d" fill-opacity="1"><g transform="translate(592.00108, 279.448776)"><g><path d="M 36.859375 -55.34375 C 42.503906 -55.257812 46.890625 -54.023438 50.015625 -51.640625 C 53.140625 -49.253906 55.023438 -46.300781 55.671875 -42.78125 C 56.328125 -39.257812 55.742188 -35.765625 53.921875 -32.296875 C 51.742188 -27.691406 47.851562 -24.328125 42.25 -22.203125 C 36.65625 -20.078125 30.171875 -19.578125 22.796875 -20.703125 C 23.140625 -17.234375 24.613281 -14.71875 27.21875 -13.15625 C 29.820312 -11.59375 33.46875 -10.765625 38.15625 -10.671875 C 40.675781 -10.671875 43.5 -11.082031 46.625 -11.90625 C 49.75 -12.738281 52.851562 -14.328125 55.9375 -16.671875 C 59.019531 -19.015625 61.6875 -22.3125 63.9375 -26.5625 C 64.289062 -27.175781 64.96875 -27.285156 65.96875 -26.890625 C 66.96875 -26.503906 67.898438 -25.960938 68.765625 -25.265625 C 69.628906 -24.566406 69.929688 -24.003906 69.671875 -23.578125 C 64.640625 -14.367188 58.953125 -7.894531 52.609375 -4.15625 C 46.273438 -0.425781 39.113281 1.390625 31.125 1.296875 C 23.65625 1.210938 17.6875 -0.0625 13.21875 -2.53125 C 8.75 -5.007812 5.601562 -8.265625 3.78125 -12.296875 C 1.957031 -16.335938 1.257812 -20.660156 1.6875 -25.265625 C 2.300781 -31.335938 4.191406 -36.628906 7.359375 -41.140625 C 10.523438 -45.660156 14.671875 -49.179688 19.796875 -51.703125 C 24.921875 -54.222656 30.609375 -55.4375 36.859375 -55.34375 Z M 35.03125 -42.984375 C 32.6875 -43.328125 30.40625 -42.148438 28.1875 -39.453125 C 25.976562 -36.765625 24.394531 -33.296875 23.4375 -29.046875 C 27.257812 -28.953125 30.273438 -29.90625 32.484375 -31.90625 C 34.703125 -33.90625 36.113281 -35.945312 36.71875 -38.03125 C 37.15625 -39.332031 37.222656 -40.457031 36.921875 -41.40625 C 36.617188 -42.363281 35.988281 -42.890625 35.03125 -42.984375 Z M 35.03125 -42.984375 "/></g></g></g><g fill="#ce301d" fill-opacity="1"><g transform="translate(654.125321, 279.448776)"><g><path d="M 24.609375 1.6875 C 22.523438 1.6875 20.242188 1.335938 17.765625 0.640625 C 15.296875 -0.046875 13.019531 -1.191406 10.9375 -2.796875 C 8.851562 -4.398438 7.25 -6.59375 6.125 -9.375 C 6.550781 -10.757812 7.414062 -11.992188 8.71875 -13.078125 C 10.019531 -14.171875 11.472656 -14.957031 13.078125 -15.4375 C 14.691406 -15.914062 16.109375 -15.9375 17.328125 -15.5 C 17.753906 -14.375 18.507812 -13.265625 19.59375 -12.171875 C 20.6875 -11.085938 22.015625 -10.503906 23.578125 -10.421875 C 25.046875 -10.421875 26.21875 -10.8125 27.09375 -11.59375 C 25.957031 -12.71875 25.347656 -13.972656 25.265625 -15.359375 C 25.179688 -16.753906 25.503906 -18.015625 26.234375 -19.140625 C 26.972656 -20.273438 27.992188 -20.972656 29.296875 -21.234375 C 28.953125 -26.085938 28.410156 -30.726562 27.671875 -35.15625 C 26.929688 -39.59375 26 -43.9375 24.875 -48.1875 C 23.394531 -46.707031 21.765625 -44.773438 19.984375 -42.390625 C 18.210938 -40.003906 16.410156 -37.460938 14.578125 -34.765625 C 12.753906 -32.078125 11.0625 -29.429688 9.5 -26.828125 C 7.9375 -24.222656 6.632812 -22.007812 5.59375 -20.1875 C 5.25 -19.488281 4.535156 -19.269531 3.453125 -19.53125 C 2.367188 -19.789062 1.4375 -20.289062 0.65625 -21.03125 C -0.125 -21.769531 -0.34375 -22.488281 0 -23.1875 C 1.5625 -26.132812 3.492188 -29.492188 5.796875 -33.265625 C 8.097656 -37.046875 10.679688 -40.867188 13.546875 -44.734375 C 16.410156 -48.597656 19.363281 -52.050781 22.40625 -55.09375 C 24.75 -57.4375 27.285156 -59.171875 30.015625 -60.296875 C 32.753906 -61.421875 35.359375 -61.984375 37.828125 -61.984375 C 40.304688 -61.984375 42.367188 -61.484375 44.015625 -60.484375 C 45.671875 -59.492188 46.628906 -58.0625 46.890625 -56.1875 C 47.148438 -54.320312 46.320312 -52.003906 44.40625 -49.234375 C 45.707031 -44.191406 46.878906 -39.695312 47.921875 -35.75 C 48.960938 -31.800781 49.65625 -28.066406 50 -24.546875 C 50.351562 -21.035156 50.179688 -17.328125 49.484375 -13.421875 C 52.179688 -13.585938 55.003906 -14.710938 57.953125 -16.796875 C 60.898438 -18.878906 63.460938 -22.179688 65.640625 -26.703125 C 65.898438 -27.222656 66.53125 -27.265625 67.53125 -26.828125 C 68.53125 -26.390625 69.441406 -25.820312 70.265625 -25.125 C 71.085938 -24.4375 71.410156 -23.921875 71.234375 -23.578125 C 67.765625 -16.710938 63.835938 -12.128906 59.453125 -9.828125 C 55.066406 -7.523438 50.570312 -6.332031 45.96875 -6.25 C 43.882812 -3.644531 40.972656 -1.671875 37.234375 -0.328125 C 33.503906 1.015625 29.296875 1.6875 24.609375 1.6875 Z M 24.609375 1.6875 "/></g></g></g></svg>